<svg xmlns="http://www.w3.org/2000/svg" xmlns:xlink="http://www.w3.org/1999/xlink" width="64" zoomAndPan="magnify" viewBox="0 0 48 48" height="64" preserveAspectRatio="xMidYMid meet" version="1.0"><defs><g/><clipPath id="77d103892b"><path d="M 0.488281 0 L 47.507812 0 L 47.507812 47.019531 L 0.488281 47.019531 Z M 0.488281 0 " clip-rule="nonzero"/></clipPath><clipPath id="1a2613db96"><rect x="0" width="37" y="0" height="20"/></clipPath></defs><g clip-path="url(#77d103892b)"><path fill="#ffffff" d="M 0.488281 0 L 47.511719 0 L 47.511719 47.019531 L 0.488281 47.019531 Z M 0.488281 0 " fill-opacity="1" fill-rule="nonzero"/><path fill="#ded9cc" d="M 0.488281 0 L 47.511719 0 L 47.511719 47.019531 L 0.488281 47.019531 Z M 0.488281 0 " fill-opacity="1" fill-rule="nonzero"/></g><g transform="matrix(1, 0, 0, 1, 6, 13)"><g clip-path="url(#1a2613db96)"><g fill="#000000" fill-opacity="1"><g transform="translate(0.714552, 15.283516)"><g><path d="M 1.390625 0 L 1.390625 -10.140625 L 4 -10.140625 L 4 -1.890625 L 11.15625 -1.890625 L 11.15625 0 Z M 1.390625 0 "/></g></g></g><g fill="#000000" fill-opacity="1"><g transform="translate(10.949286, 15.283516)"><g><path d="M 6.0625 0.25 C 4.914062 0.25 3.925781 0.128906 3.09375 -0.109375 C 2.269531 -0.359375 1.632812 -0.75 1.1875 -1.28125 C 0.75 -1.820312 0.53125 -2.515625 0.53125 -3.359375 L 2.953125 -3.359375 C 2.953125 -2.804688 3.234375 -2.375 3.796875 -2.0625 C 4.359375 -1.757812 5.109375 -1.609375 6.046875 -1.609375 C 6.941406 -1.609375 7.648438 -1.726562 8.171875 -1.96875 C 8.691406 -2.207031 8.953125 -2.582031 8.953125 -3.09375 L 8.953125 -3.109375 C 8.953125 -3.535156 8.753906 -3.847656 8.359375 -4.046875 C 7.960938 -4.253906 7.332031 -4.359375 6.46875 -4.359375 L 4.828125 -4.359375 L 4.828125 -6.03125 L 6.40625 -6.03125 C 7.289062 -6.03125 7.914062 -6.140625 8.28125 -6.359375 C 8.644531 -6.578125 8.828125 -6.859375 8.828125 -7.203125 L 8.828125 -7.21875 C 8.828125 -7.59375 8.625 -7.90625 8.21875 -8.15625 C 7.8125 -8.40625 7.101562 -8.53125 6.09375 -8.53125 C 5.207031 -8.53125 4.503906 -8.363281 3.984375 -8.03125 C 3.472656 -7.695312 3.21875 -7.242188 3.21875 -6.671875 L 0.796875 -6.671875 C 0.796875 -7.390625 0.992188 -8.023438 1.390625 -8.578125 C 1.796875 -9.128906 2.394531 -9.5625 3.1875 -9.875 C 3.976562 -10.195312 4.957031 -10.359375 6.125 -10.359375 C 7.84375 -10.359375 9.148438 -10.101562 10.046875 -9.59375 C 10.953125 -9.082031 11.40625 -8.414062 11.40625 -7.59375 L 11.40625 -7.546875 C 11.40625 -6.953125 11.1875 -6.453125 10.75 -6.046875 C 10.320312 -5.648438 9.722656 -5.394531 8.953125 -5.28125 L 8.953125 -5.234375 C 9.773438 -5.109375 10.410156 -4.84375 10.859375 -4.4375 C 11.316406 -4.03125 11.546875 -3.476562 11.546875 -2.78125 L 11.546875 -2.75 C 11.546875 -1.75 11.078125 -1 10.140625 -0.5 C 9.210938 0 7.851562 0.25 6.0625 0.25 Z M 6.0625 0.25 "/></g></g></g><g fill="#000000" fill-opacity="1"><g transform="translate(21.648081, 15.283516)"><g><path d="M 1.390625 0 L 1.390625 -10.140625 L 4 -10.140625 L 4 -6.125 L 6.546875 -6.125 L 9.796875 -10.140625 L 12.890625 -10.140625 L 8.71875 -5.21875 L 8.71875 -5.140625 L 13.46875 0 L 10.375 0 L 6.546875 -4.203125 L 4 -4.203125 L 4 0 Z M 1.390625 0 "/></g></g></g></g></g></svg>